<svg width="59" height="59" viewBox="0 0 59 59" fill="none" xmlns="http://www.w3.org/2000/svg">
<path d="M39.6847 48.9894C34.2419 48.979 33.3576 48.2146 33.4734 42.7177C33.5576 38.2783 32.2522 34.666 29.2728 31.2631C24.3564 25.6615 25.1249 17.4527 30.5993 12.5107C35.8526 7.76764 44.5064 7.84093 49.7071 12.6678C54.9605 17.5365 55.529 26.1012 50.6546 31.5353C47.8332 34.6764 46.4435 38.0374 46.5488 42.2675C46.6962 48.267 45.7803 49.0104 39.6742 48.9999L39.6847 48.9894ZM43.2536 42.0476C43.4326 39.0845 43.0641 38.1526 39.8111 38.0793C36.3264 37.9955 36.6843 39.7964 36.5791 42.0685C36.4527 44.7385 36.7686 46.152 40.148 46.1624C43.5905 46.1624 43.1062 45.0212 43.2642 42.0476H43.2536Z" fill="#529BBB"/>
<path d="M43.6116 42.1418C43.6958 45.1468 43.58 46.1834 40.1374 46.1834C36.758 46.1834 36.4422 44.7699 36.5685 42.0895C36.6738 39.8174 36.3264 38.0165 39.8005 38.1003C43.0641 38.1735 43.759 39.0531 43.6116 42.1418Z" fill="#222421"/>
</svg>
