<?xml version="1.0" encoding="UTF-8"?>
<svg id="Layer_1" data-name="Layer 1" xmlns="http://www.w3.org/2000/svg" viewBox="0 0 37.93 54.46">
  <defs>
    <style>
      .cls-1 {
        fill: #222421;
      }

      .cls-2 {
        fill: #529bbb;
      }
    </style>
  </defs>
  <g id="qoxz7L.tif">
    <g>
      <path class="cls-2" d="M18.53,54.46c-7.37-.02-8.57-1.05-8.42-8.54,.12-6.04-1.66-10.97-5.69-15.6C-2.23,22.69-1.18,11.51,6.23,4.78c7.11-6.46,18.83-6.36,25.88,.21,7.12,6.63,7.89,18.3,1.29,25.69-3.82,4.28-5.71,8.86-5.56,14.62,.2,8.17-1.04,9.19-9.31,9.17Zm4.83-9.44c.24-4.04-.25-5.3-4.66-5.4-4.72-.11-4.24,2.34-4.38,5.43-.17,3.64,.25,5.56,4.83,5.57,4.67,0,4-1.55,4.22-5.6Z"/>
      <path class="cls-1" d="M23.85,45.13c.12,4.09-.04,5.51-4.71,5.5-4.58,0-5-1.93-4.83-5.57,.14-3.09-.33-5.54,4.38-5.43,4.42,.1,5.36,1.3,5.16,5.5Z"/>
    </g>
  </g>
</svg>