<?xml version="1.0" encoding="UTF-8"?>
<svg id="Layer_1" data-name="Layer 1" xmlns="http://www.w3.org/2000/svg" viewBox="0 0 458.23 277.79">
  <defs>
    <style>
      .cls-1 {
        fill: #4c9abb;
      }

      .cls-2 {
        fill: #4c9aba;
      }
    </style>
  </defs>
  <g id="m9wmrJ.tif">
    <g>
      <path class="cls-1" d="M420.62,78.09c-9.06,0-18.12-.03-27.18,.03-1.76,.01-2.51-.31-2.9-2.32-3.51-17.76-15.56-28.72-33.88-31.28-10.38-1.45-20.69-1.68-30.83,1.25-17.02,4.93-23.15,17.76-19.99,33.78,1.28,6.48,5.36,11.1,10.97,14.53,8.51,5.2,17.98,7.99,27.52,10.57,15.23,4.12,30.77,7.1,45.74,12.22,15.66,5.36,30.71,11.83,43.68,22.25,14.22,11.43,22.05,26.21,23.87,44.18,1.54,15.2,.36,30-5.97,44.12-8.7,19.41-24.08,31.86-43.54,39.97-13.23,5.51-27.12,8.17-41.36,9.49-17,1.58-33.92,1.19-50.72-1.8-23.55-4.18-44.45-13.43-60.36-31.66-10.89-12.47-17.14-27.13-20.07-43.22-.99-5.45-.9-5.46,4.6-5.46,17.27,0,34.54,.01,51.8-.02,1.77,0,2.78,.17,3.33,2.3,5.17,20.06,18.7,31.36,39.02,35.05,13.97,2.53,28.01,2.62,41.7-1.61,20.74-6.41,28.6-31.05,15.4-48.14-4.7-6.09-11.53-9.44-18.54-12.32-13.25-5.46-27.25-8.42-41.11-11.82-18.23-4.48-36.05-10.08-52.41-19.45-10.33-5.92-19.31-13.29-25.78-23.32-7.5-11.63-9.64-24.65-9.38-38.08,.36-18.82,6.21-35.72,19.62-49.58,10.67-11.03,23.89-17.94,38.61-22.18C320.02,.48,337.99-.69,356.2,.35c16.32,.93,32.15,3.85,47.03,10.76,27.63,12.84,43.01,34.49,47.48,63.98,.32,2.15,0,3.11-2.63,3.06-9.15-.17-18.3-.07-27.46-.07Z"/>
      <path class="cls-2" d="M113.32,3.88c36.51,0,73.02,.03,109.53-.06,2.53,0,3.29,.55,3.27,3.15-.14,14.01-.12,28.02,0,42.03,.02,2.32-.59,2.91-2.95,2.9-25.47-.09-50.94-.05-76.41-.05q-3.67,0-3.67,3.55c0,71.63,0,143.25,0,214.88q0,3.68-3.76,3.68c-17.45,0-34.91,0-52.36,0q-3.66,0-3.66-3.73c0-71.63-.02-143.25,.07-214.88,0-2.98-.85-3.58-3.72-3.57-25.57,.11-51.13,.03-76.7,.12C.6,51.92-.02,51.35,0,49.02,.12,34.92,.12,20.82,0,6.71c-.02-2.32,.59-2.89,2.94-2.89,36.79,.08,73.58,.05,110.38,.05Z"/>
    </g>
  </g>
</svg>