<?xml version="1.0" standalone="yes"?>
<svg xmlns="http://www.w3.org/2000/svg" width="2624" height="2312">
<path style="fill:#ffffff; stroke:none;" d="M0 0L0 1142L1 1142C1 1080.97 24.507 1017.08 60.152 968C100.649 912.235 156.378 865.622 205 817L768 254L954 68L1002 20C1006.33 15.6724 1014.73 3.4541 1021 2.63135C1026.7 1.8833 1036.28 15.2822 1040 19L1094 73L1312 291L1313 291L1529 75L1583 21C1587.12 16.8772 1596.88 3.05542 1603 3.05542C1608.47 3.05542 1616.37 14.3748 1620 18L1667 65L1855 253L2421 819L2503 901C2522.07 920.068 2541.93 938.512 2558.35 960C2595.51 1008.67 2623 1073.96 2623 1136L2624 1136L2624 0L0 0z"/>
<path style="fill:#219fbd; stroke:none;" d="M448 1157L1089 516L1254 351L1296 309C1299.99 305.005 1310.38 297.897 1311.08 292C1311.72 286.588 1301.42 279.417 1298 276L1257 235L1086 64L1037 15C1033.27 11.2676 1025.09 -0.651123 1019 2.66211C1009.01 8.09888 1000.03 20.9678 992 29L933 88L740 281L261 760L133 888C93.9391 927.061 54.73 964.992 31.3086 1016C-15.9389 1118.9 -9.38059 1243.54 55.0285 1338C73.8764 1365.64 97.4534 1388.45 121 1412L202 1493L730 2021L951 2242L1004 2295C1007.64 2298.64 1017.28 2312.08 1023 2310.65C1029.33 2309.08 1036.49 2298.51 1041 2294L1085 2250L1247 2088L1296 2039C1299.51 2035.49 1312.04 2026.56 1310.65 2021C1309.08 2014.67 1298.51 2007.51 1294 2003L1250 1959L1087 1796C942.818 1651.82 799.184 1507.18 655 1363L517 1225C495.022 1203.02 473.385 1174.88 448 1157z"/>
<path style="fill:#ffb703; stroke:none;" d="M1312 291L1312 292L1959 939L2120 1100L2161 1141L2173.94 1156L2161 1171L2120 1212L1958 1374L1312 2021C1318.79 2030.64 1328.67 2038.67 1337 2047L1384 2094L1531 2241L1584 2294C1588.02 2298.02 1596.96 2310.79 1603 2310.79C1608.59 2310.79 1616.32 2299.68 1620 2296L1667 2249L1854 2062L2402 1514L2496 1420C2522.02 1393.98 2548.54 1368.63 2569.25 1338C2597.5 1296.23 2616.43 1246.24 2621.83 1196C2630.35 1116.76 2612.44 1035.75 2566.28 970C2547.5 943.245 2524.02 921.018 2501 898L2415 812L1868 265L1671 68L1621 18C1617.15 14.1499 1608.81 2.20679 1603 2.20679C1596.75 2.20679 1587.18 15.8167 1583 20L1529 74L1312 291z"/>
<path style="fill:#ffffff; stroke:none;" d="M1312 292L1044 560L958 646L914 691C930.824 679.288 946.203 665.308 963 653.424C991.419 633.318 1022.37 615.832 1054 601.309C1209.66 529.836 1391.92 526.09 1550 592.424C1590.92 609.595 1629.68 631.223 1666 656.721C1682.97 668.637 1698.06 683.207 1715 695C1697.63 670.347 1670.34 649.343 1649 628L1515 494L1380 359C1358.34 337.339 1337.02 309.624 1312 292z"/>
<path style="fill:#d92d29; stroke:none;" d="M1281 545.424C1246.14 550.001 1211.59 551.783 1177 559.424C1106.43 575.011 1038.73 603.574 978 642.692C749.979 789.559 647.969 1081.38 728.026 1339C750.42 1411.06 785.983 1478.94 833.004 1538C884.16 1602.26 947.981 1657.98 1006 1716L1234 1944L1291 2001C1295.35 2005.35 1305.53 2019.79 1312 2019.79C1318.04 2019.79 1326.98 2007.02 1331 2003L1383 1951L1591 1743L1710 1624C1740.95 1593.05 1772.5 1562.88 1799.12 1528C1853.13 1457.21 1891.27 1374.09 1909.79 1287C1962.88 1037.33 1855.74 775.327 1639 638.053C1587.79 605.621 1531.44 581.677 1473 565.849C1431.6 554.635 1389.66 548.833 1347 545.911C1325.81 544.459 1302.14 542.649 1281 545.424z"/>
<path style="fill:#0c141a; stroke:none;" d="M1343 545L1344 546L1343 545M1243 548L1244 549L1243 548M1227 550L1228 551L1227 550M1220 551L1221 552L1220 551M1427 555L1428 556L1427 555M1160 563L1161 564L1160 563M1471 565L1472 566L1471 565M1088 586L1089 587L1088 586M1078 590L1079 591L1078 590M1564 598L1565 599L1564 598M1577 604L1578 605L1577 604M1597 614L1598 615L1597 614M1648 644L1649 645L1648 644M1651 646L1652 647L1651 646M1654 648L1655 649L1654 648M962 653L963 654L962 653M1667 657L1668 658L1667 657M1678 665L1679 666L1678 665M944 666L945 667L944 666M1682 668L1683 669L1682 668M920 685L921 686L920 685M1773 753L1774 754L1773 753z"/>
<path style="fill:#ffffff; stroke:none;" d="M1774 754L1775 755L1774 754M1775 755L1776 756L1775 755M1776 756L1777 757L1776 756M1777 757L1778 758L1777 757M846 758L847 759L846 758M1778 758L1779 759L1778 758M845 759L846 760L845 759M1779 759C1783.33 767.389 1790.78 774.556 1796.58 782C1806.38 794.582 1815.52 807.713 1824.33 821C1848.78 857.857 1868.28 897.797 1884.19 939C1942.73 1090.62 1935.35 1265.65 1867.69 1413C1854.05 1442.71 1838.02 1472.18 1819.28 1499C1807.39 1516.01 1790.36 1532.67 1781 1551L1815 1518L1879 1454L2079 1254L2151 1182L2169 1164L2174.79 1156L2169 1148L2151 1130L2079 1058L1878 857L1813 792L1779 759M844 760L845 761L844 760z"/>
<path style="fill:#0c141a; stroke:none;" d="M1779 760L1780 761L1779 760z"/>
<path style="fill:#ffffff; stroke:none;" d="M843 761L844 762L843 761M842 762L843 763L842 762M841 763L842 764L841 763M840 764L448 1156L448 1157L715 1424L801 1510L845 1553C838.166 1538.08 823.065 1524.48 813.427 1511C794.077 1483.93 776.754 1454.96 762.258 1425C699.513 1295.32 685.6 1147.69 718.654 1008C733.166 946.675 758.951 887.635 791.811 834C802.401 816.715 813.958 800.041 826.349 784C830.19 779.029 840.21 770.381 840 764z"/>
<path style="fill:#0c141a; stroke:none;" d="M1784 766L1785 767L1784 766M1796 781L1797 782L1796 781M822 788L823 789L822 788M809 806L810 807L809 806M1827 825L1828 826L1827 825M1841 848L1842 849L1841 848M1845 855L1846 856L1845 855M1866 896L1867 897L1866 896z"/>
<path style="fill:#ffffff; stroke:none;" d="M1291 917.424C1244.92 923.478 1202.88 936.996 1165 964.884C1139.78 983.455 1118.14 1007.15 1102 1034C1036.77 1142.49 1064.12 1289.65 1169 1363.28C1195.83 1382.11 1226.06 1395.42 1258 1402.65C1285.86 1408.95 1314.72 1410.44 1343 1406.72C1380.55 1401.78 1416.22 1389 1448 1368.3C1566.22 1291.32 1590.91 1127.15 1509.57 1015C1494.5 994.208 1475.12 975.611 1454 961.026C1429.73 944.265 1402.64 931.534 1374 924.373C1347.68 917.793 1318.11 913.863 1291 917.424z"/>
<path style="fill:#0c141a; stroke:none;" d="M746 922L747 923L746 922M1227 931L1228 932L1227 931M742 932L743 933L742 932M1409 936L1410 937L1409 936M83 938L84 939L83 938M1185 951L1186 952L1185 951M1440 952L1441 953L1440 952M1177 956L1178 957L1177 956M1174 958L1175 959L1174 958M2557 958L2558 959L2557 958M2560 962L2561 963L2560 962M1146 980L1147 981L1146 980M725 982L726 983L725 982M2575 984L2576 985L2575 984M723 989L724 990L723 989z"/>
<path style="fill:#219fbd; stroke:none;" d="M2578 989L2579 990L2578 989z"/>
<path style="fill:#0c141a; stroke:none;" d="M1902 995L1903 996L1902 995M719 1004L720 1005L719 1004M2588 1007L2589 1008L2588 1007M718 1008L719 1009L718 1008M2589 1009L2590 1010L2589 1009z"/>
<path style="fill:#219fbd; stroke:none;" d="M2590 1011L2591 1012L2590 1011z"/>
<path style="fill:#0c141a; stroke:none;" d="M2591 1013L2592 1014L2591 1013M1115 1014L1116 1015L1115 1014M1907 1015L1908 1016L1907 1015M1512 1019L1513 1020L1512 1019M1526 1041L1527 1042L1526 1041z"/>
<path style="fill:#219fbd; stroke:none;" d="M2603 1041L2604 1042L2603 1041z"/>
<path style="fill:#0c141a; stroke:none;" d="M1093 1049L1094 1050L1093 1049M1092 1051L1093 1052L1092 1051M1537 1063L1538 1064L1537 1063M707 1064L708 1065L707 1064M11 1070L12 1071L11 1070M706 1071L707 1072L706 1071M1080 1079L1081 1080L1080 1079M1919 1084L1920 1085L1919 1084M2616 1085L2617 1086L2616 1085M1077 1088L1078 1089L1077 1088M2621 1114L2622 1115L2621 1114M1068 1128L1069 1129L1068 1128M1923 1168L1924 1169L1923 1168z"/>
<path style="fill:#ffffff; stroke:none;" d="M0 1170L0 2312L1021 2312C1013.69 2301.63 1002.96 2292.96 994 2284L942 2232L782 2072L285 1575L140 1430C107.874 1397.87 72.9976 1367.18 49.2029 1328C30.588 1297.35 16.1771 1264.1 8.42438 1229C5.73116 1216.81 3.49615 1204.42 2.16589 1192C1.44893 1185.31 2.56069 1176.1 0 1170z"/>
<path style="fill:#219fbd; stroke:none;" d="M2623 1176L2624 1177L2623 1176z"/>
<path style="fill:#ffffff; stroke:none;" d="M2623 1177C2623 1238 2595.91 1303.13 2559.35 1351C2535.4 1382.36 2505.83 1409.17 2478 1437L2361 1554L1850 2065L1685 2230L1632 2283C1622.72 2292.28 1611.56 2301.26 1604 2312L2624 2312L2624 1506L2624 1274L2624 1207L2623 1177z"/>
<path style="fill:#0c141a; stroke:none;" d="M1 1185L2 1186L1 1185M701 1187L702 1188L701 1187M1067 1188L1068 1189L1067 1188M2619 1211L2620 1212L2619 1211M1920 1218L1921 1219L1920 1218M1073 1222L1074 1223L1073 1222M1076 1233L1077 1234L1076 1233z"/>
<path style="fill:#219fbd; stroke:none;" d="M2611 1246L2612 1247L2611 1246z"/>
<path style="fill:#0c141a; stroke:none;" d="M1540 1254L1541 1255L1540 1254M1915 1256L1916 1257L1915 1256M2608 1256L2609 1257L2608 1256M16 1258L17 1259L16 1258M2607 1259L2608 1260L2607 1259M17 1261L18 1262L17 1261M2606 1262L2607 1263L2606 1262M711 1271L712 1272L711 1271M2602 1273L2603 1274L2602 1273M1908 1292L1909 1293L1908 1292M2594 1292L2595 1293L2594 1292M1510 1308L1511 1309L1510 1308z"/>
<path style="fill:#219fbd; stroke:none;" d="M2585 1310L2586 1311L2585 1310z"/>
<path style="fill:#0c141a; stroke:none;" d="M2580 1319L2581 1320L2580 1319M1901 1320L1902 1321L1901 1320M1498 1323L1499 1324L1498 1323z"/>
<path style="fill:#219fbd; stroke:none;" d="M2577 1324L2578 1325L2577 1324z"/>
<path style="fill:#0c141a; stroke:none;" d="M50 1330L51 1331L50 1330z"/>
<path style="fill:#219fbd; stroke:none;" d="M2572 1332L2573 1333L2572 1332M2566 1341L2567 1342L2566 1341z"/>
<path style="fill:#0c141a; stroke:none;" d="M58 1342L59 1343L58 1342M1148 1346L1149 1347L1148 1346z"/>
<path style="fill:#219fbd; stroke:none;" d="M2561 1348L2562 1349L2561 1348z"/>
<path style="fill:#0c141a; stroke:none;" d="M1155 1352L1156 1353L1155 1352M2558 1352L2559 1353L2558 1352M70 1358L71 1359L70 1358M1886 1367L1887 1368L1886 1367M1183 1372L1184 1373L1183 1372M1437 1374L1438 1375L1437 1374M2536 1378L2537 1379L2536 1378M1201 1382L1202 1383L1201 1382M1257 1402L1258 1403L1257 1402M1872 1402L1873 1403L1872 1402M1344 1406L1345 1407L1344 1406M1320 1408L1321 1409L1320 1408M1868 1411L1869 1412L1868 1411M760 1421L761 1422L760 1421M770 1441L771 1442L770 1441M1824 1491L1825 1492L1824 1491M800 1492L801 1493L800 1492M1818 1500L1819 1501L1818 1500M806 1501L807 1502L806 1501M821 1522L822 1523L821 1522M824 1526L825 1527L824 1526M1790 1538L1791 1539L1790 1538M1781 1549L1782 1550L1781 1549z"/>
<path style="fill:#ffffff; stroke:none;" d="M1780 1551L1781 1552L1780 1551M1779 1552L1780 1553L1779 1552M845 1553L846 1554L845 1553M1778 1553L1779 1554L1778 1553M846 1554L847 1555L846 1554M1777 1554L1778 1555L1777 1554M847 1555L848 1556L847 1555M1776 1555L1777 1556L1776 1555M848 1556L849 1557L848 1556M849 1557L850 1558L849 1557M850 1558L851 1559L850 1558M1312 2022L1118 2216L1055 2279L1023 2312L1602 2312L1554 2263L1458 2167L1361 2070L1312 2022z"/>
</svg>
